<mxfile host="Electron" modified="2023-08-16T22:53:41.633Z" agent="Mozilla/5.0 (Windows NT 10.0; Win64; x64) AppleWebKit/537.36 (KHTML, like Gecko) draw.io/21.6.8 Chrome/114.0.5735.289 Electron/25.5.0 Safari/537.36" etag="YK_Vhcs9GbWkJBWMX7Jj" version="21.6.8" type="device">
  <diagram name="Page-1" id="5MqfHrel_7MO0dLBKpmw">
    <mxGraphModel dx="960" dy="564" grid="1" gridSize="10" guides="1" tooltips="1" connect="1" arrows="1" fold="1" page="1" pageScale="1" pageWidth="827" pageHeight="1169" math="0" shadow="0">
      <root>
        <mxCell id="0" />
        <mxCell id="1" parent="0" />
        <mxCell id="ol1BgrkFnSKuf2agnqjM-1" value="" style="rounded=0;whiteSpace=wrap;html=1;fillColor=none;strokeWidth=7;" vertex="1" parent="1">
          <mxGeometry x="40" y="100" width="800" height="400" as="geometry" />
        </mxCell>
      </root>
    </mxGraphModel>
  </diagram>
</mxfile>
